<svg xmlns="http://www.w3.org/2000/svg" version="1.1" xmlns:xlink="http://www.w3.org/1999/xlink" xmlns:svgjs="http://svgjs.dev/svgjs" width="2560" height="1440" preserveAspectRatio="none" viewBox="0 0 2560 1440"><g mask="url(&quot;#SvgjsMask1021&quot;)" fill="none"><rect width="2560" height="1440" x="0" y="0" fill="rgba(13, 110, 253, 1)"></rect><path d="M0 0L722.39 0L0 714.98z" fill="rgba(255, 255, 255, .1)"></path><path d="M0 714.98L722.39 0L1738.08 0L0 1075.7z" fill="rgba(255, 255, 255, .075)"></path><path d="M0 1075.7L1738.08 0L2148.21 0L0 1137.3400000000001z" fill="rgba(255, 255, 255, .05)"></path><path d="M0 1137.3400000000001L2148.21 0L2335.31 0L0 1153.19z" fill="rgba(255, 255, 255, .025)"></path><path d="M2560 1440L1594.25 1440L2560 1058.31z" fill="rgba(0, 0, 0, .1)"></path><path d="M2560 1058.31L1594.25 1440L899.03 1440L2560 829.01z" fill="rgba(0, 0, 0, .075)"></path><path d="M2560 829.01L899.03 1440L484.88 1440L2560 722.95z" fill="rgba(0, 0, 0, .05)"></path><path d="M2560 722.95L484.8800000000001 1440L279.0700000000001 1440L2560 431.27000000000004z" fill="rgba(0, 0, 0, .025)"></path></g><defs><mask id="SvgjsMask1021"><rect width="2560" height="1440" fill="#ffffff"></rect></mask></defs></svg>