<?xml version="1.0" encoding="UTF-8" standalone="no"?>
<!DOCTYPE svg PUBLIC "-//W3C//DTD SVG 1.1//EN" "http://www.w3.org/Graphics/SVG/1.1/DTD/svg11.dtd">
<svg width="100%" height="100%" viewBox="0 0 3538 1063" version="1.1" xmlns="http://www.w3.org/2000/svg" xmlns:xlink="http://www.w3.org/1999/xlink" xml:space="preserve" xmlns:serif="http://www.serif.com/" style="fill-rule:evenodd;clip-rule:evenodd;stroke-linejoin:round;stroke-miterlimit:2;">
    <g transform="matrix(4.16667,0,0,4.16667,0,0)">
        <path d="M92.793,0L76.281,31.93C81.312,33.852 85.93,36.59 89.992,39.98L98.203,24.48C143.883,50.559 147.07,88.012 137.723,104.211L107.402,156.699C111.992,158.43 116.25,160.859 120.051,163.84L150.281,111.5C166.07,85.199 167.27,45.602 92.793,0ZM32.441,116.699L6.473,166.898C-6.887,190.039 1.102,219.551 24.32,232.801C35.27,239.051 47.652,240.57 59.07,238.012C54.75,234.289 51.09,229.82 48.312,224.801C42.602,224.789 36.832,223.34 31.531,220.32C15.27,211.039 9.68,190.391 19.043,174.191L46.102,123C41.18,121.621 36.582,119.469 32.441,116.699Z" style="fill:rgb(13,108,251);"/>
        <path d="M35.133,76.801C35.133,63.551 45.891,52.801 59.16,52.801C72.43,52.801 83.18,63.551 83.18,76.801C83.18,90.059 72.43,100.801 59.16,100.801C45.891,100.801 35.133,90.059 35.133,76.801ZM23.121,76.801C23.121,96.68 39.25,112.801 59.16,112.801C79.062,112.801 95.203,96.68 95.203,76.801C95.203,56.922 79.062,40.801 59.16,40.801C39.25,40.801 23.121,56.922 23.121,76.801Z" style="fill:rgb(13,108,251);"/>
        <path d="M66.363,201.602C66.363,188.352 77.121,177.602 90.391,177.602C103.66,177.602 114.422,188.352 114.422,201.602C114.422,214.859 103.66,225.602 90.391,225.602C77.121,225.602 66.363,214.859 66.363,201.602ZM54.352,201.602C54.352,221.48 70.492,237.602 90.391,237.602C110.293,237.602 126.43,221.48 126.43,201.602C126.43,181.719 110.293,165.602 90.391,165.602C70.492,165.602 54.352,181.719 54.352,201.602Z" style="fill:rgb(13,108,251);"/>
        <path d="M187.812,55.199L231.132,55.199L231.132,160.801L187.812,160.802L187.812,55.199Z" style="fill:rgb(13,108,251);"/>
        <path d="M209.492,45.602C217.391,45.602 223.723,43.391 228.441,38.961C233.152,34.539 235.551,28.91 235.551,22.012C235.551,15.559 233.152,10.27 228.441,6.148C223.723,2.059 217.391,0 209.492,0C201.703,0 195.41,2.18 190.613,6.449C185.82,10.762 183.422,16.199 183.422,22.801C183.422,29.398 185.82,34.871 190.613,39.148C195.41,43.461 201.703,45.602 209.492,45.602Z" style="fill:rgb(13,108,251);"/>
        <path d="M358.832,90.07C364.973,87.039 369.582,83.031 372.723,78.078C375.871,73.121 377.441,67.5 377.441,61.281C377.441,50.738 372.871,42.301 363.73,35.93C354.602,29.59 341.082,26.398 323.18,26.398L251.473,26.398L251.473,160.801L327,160.801C345.383,160.801 359.43,157.57 369.16,151.051C378.902,144.559 383.77,135.371 383.77,123.488C383.77,115.539 381.562,108.711 377.211,103.051C372.871,97.391 366.73,93.07 358.832,90.07ZM323.18,129.603L295.953,129.603L295.953,108L323.18,108C333.141,108 338.121,111.602 338.121,118.801C338.121,126 333.141,129.603 323.18,129.603ZM317.043,57.602C326.852,57.602 331.793,60.82 331.793,67.199C331.793,73.609 326.852,76.801 317.043,76.801L295.953,76.801L295.953,57.602L317.043,57.602Z" style="fill:rgb(13,108,251);"/>
        <path d="M510.301,107.359C510.301,95.961 507.68,86.141 502.512,77.891C497.352,69.641 490.383,63.41 481.621,59.172C472.863,54.941 463.191,52.801 452.602,52.801C441.32,52.801 431.18,55.16 422.191,59.809C413.16,64.5 406.09,71.02 400.922,79.391C395.75,87.789 393.172,97.281 393.172,107.891C393.172,118.43 395.75,127.91 400.992,136.352C406.242,144.789 413.652,151.391 423.242,156.109C432.82,160.801 443.953,163.199 456.602,163.199C476.902,163.199 492.18,157.84 502.441,147.039L479.82,123.039C476.082,126.34 472.672,128.621 469.52,129.969C466.383,131.32 462.52,132 457.953,132C452.562,132 448.102,130.762 444.512,128.289C440.91,125.81 438.371,122.25 436.871,117.602L509.703,117.602C510.082,111.449 510.301,108.039 510.301,107.359ZM452.973,81.602C457.43,81.602 461.133,82.91 464.09,85.461C467.012,88.012 468.961,91.539 469.863,96L436.082,96C436.98,91.43 438.891,87.859 441.852,85.352C444.77,82.871 448.48,81.602 452.973,81.602Z" style="fill:rgb(13,108,251);"/>
        <path d="M564.383,163.199C575.992,163.199 585.91,161.551 594.07,158.289C602.242,154.988 608.383,150.602 612.5,145.051C616.582,139.5 618.641,133.391 618.641,126.642C618.641,117.82 616.352,111.039 611.82,106.309C607.25,101.59 602.012,98.359 596.09,96.641C590.141,94.91 582.883,93.52 574.34,92.469C568.832,91.801 564.793,91.121 562.242,90.371C559.703,89.66 558.422,88.461 558.422,86.738C558.422,83.32 563.141,81.602 572.621,81.602C583.59,81.602 593.703,84.371 602.91,89.93L614.781,61.461C609.391,58.648 602.91,56.512 595.312,55.012C587.711,53.551 579.961,52.801 572.02,52.801C560.633,52.801 550.902,54.449 542.812,57.75C534.68,61.051 528.582,65.441 524.5,70.988C520.383,76.539 518.352,82.762 518.352,89.738C518.352,98.59 520.602,105.371 525.133,110.102C529.66,114.859 534.941,118.051 540.973,119.699C546.961,121.352 554.27,122.66 562.84,123.711C568.461,124.392 572.5,125.06 575.012,125.739C577.48,126.41 578.762,127.57 578.762,129.262C578.762,130.989 577.75,132.301 575.762,133.121C573.781,133.988 570.293,134.398 565.312,134.398C559.02,134.398 552.582,133.539 545.953,131.781C539.293,130.012 533.562,127.57 528.691,124.461L516.82,153.301C522.172,156.219 529.211,158.621 537.902,160.461C546.59,162.262 555.391,163.199 564.383,163.199Z" style="fill:rgb(13,108,251);"/>
        <path d="M698.102,126.371C695.262,128.211 692,129.109 688.332,129.109C685.633,129.109 683.422,128.25 681.77,126.532C680.133,124.801 679.301,122.359 679.301,119.25L679.301,93.602L700.801,93.602L700.801,62.398L679.301,62.398L679.301,31.199L635.98,31.199L635.98,62.398L621.602,62.398L621.602,93.602L635.98,93.602L635.98,120.531C635.98,134.77 639.91,145.422 647.852,152.551C655.793,159.68 667.102,163.199 681.812,163.199C693.051,163.199 701.922,161.289 708.441,157.461L698.102,126.371Z" style="fill:rgb(13,108,251);"/>
        <path d="M188.562,235.539L221.852,193.16L221.852,189.602L181.961,189.602L181.961,194.059L214.812,194.059L181.441,236.512L181.441,240L222.711,240L222.711,235.539L188.562,235.539Z" style="fill:rgb(13,108,251);"/>
        <path d="M233.27,187.199L238.364,187.199L238.364,240L233.27,240.001L233.27,187.199Z" style="fill:rgb(13,108,251);"/>
        <path d="M245.332,199.199L249,199.199L249.633,184.801L245.332,184.801L245.332,199.199Z" style="fill:rgb(13,108,251);"/>
        <path d="M265.66,201.602C262.66,201.602 259.851,202.09 257.16,202.988C254.461,203.891 252.18,205.199 250.27,206.852L252.59,210.602C254.16,209.172 256.043,208.09 258.242,207.262C260.453,206.469 262.781,206.059 265.172,206.059C268.652,206.059 271.312,206.922 273.152,208.648C274.953,210.371 275.883,212.852 275.883,216.078L275.883,218.398L263.863,218.398C258.769,218.398 255.102,219.371 252.781,221.328C250.461,223.27 249.293,225.859 249.293,229.051C249.293,232.352 250.531,235.012 253,237C255.473,239.02 258.84,240 263.082,240C266.152,240 268.77,239.441 271.012,238.309C273.262,237.191 274.953,235.57 276.113,233.551L276.113,240L280.98,240L280.98,216.371C280.98,211.5 279.633,207.828 277.012,205.352C274.383,202.871 270.602,201.602 265.66,201.602ZM263.863,235.539C260.832,235.539 258.471,234.98 256.82,233.809C255.141,232.648 254.312,231.07 254.312,229.051C254.312,224.93 257.531,222.86 264.012,222.86L275.883,222.86L275.883,228.52C274.871,230.809 273.34,232.539 271.281,233.738C269.223,234.941 266.75,235.539 263.863,235.539Z" style="fill:rgb(13,108,251);"/>
        <path d="M322.32,201.602L308.012,234.371L293.863,201.602L288.543,201.602L305.281,240L310.52,240L327.371,201.602L322.32,201.602Z" style="fill:rgb(13,108,251);"/>
        <path d="M360.66,201.602L346.43,234.301L332.203,201.602L326.891,201.602L343.77,239.93L342.133,243.602C341.082,245.891 339.922,247.5 338.723,248.512C337.48,249.449 336.02,249.941 334.301,249.941C331.602,249.941 329.281,248.961 327.371,247.09L325.012,250.949C326.172,252.071 327.52,252.941 329.102,253.539C330.672,254.102 332.391,254.398 334.23,254.398C337.031,254.398 339.43,253.648 341.453,252.148C343.473,250.648 345.23,248.102 346.812,244.5L365.723,201.602L360.66,201.602Z" style="fill:rgb(13,108,251);"/>
        <path d="M372.832,230.398C371.711,230.398 370.812,230.809 370.102,231.602C369.391,232.43 369.051,233.398 369.051,234.602C369.051,235.57 369.281,236.441 369.762,237.109C370.211,237.828 370.852,238.309 371.641,238.539L369.203,249.602L372.652,249.602L375.641,238.989C375.98,238.09 376.242,237.301 376.391,236.551C376.543,235.84 376.652,235.16 376.652,234.559C376.652,233.359 376.281,232.391 375.57,231.602C374.863,230.809 373.961,230.398 372.832,230.398Z" style="fill:rgb(13,108,251);"/>
        <path d="M435.113,240L441.363,240L423.652,217.5L439.832,201.602L433.5,201.602L410.922,222.711L410.922,187.199L405.82,187.199L405.82,240L410.922,240L410.922,229.16L419.832,220.949L435.113,240Z" style="fill:rgb(13,108,251);"/>
        <path d="M467.09,231.262C466.34,231.859 465.48,232.352 464.5,232.648C463.531,232.988 462.52,233.141 461.473,233.141C459.371,233.141 457.73,232.578 456.602,231.371C455.48,230.211 454.922,228.488 454.922,226.238L454.922,203.66L466.453,203.66L466.453,199.199L454.922,199.199L454.922,190.802L449.832,190.802L449.832,199.199L443.082,199.199L443.082,203.66L449.832,203.66L449.832,226.57C449.832,230.102 450.762,232.801 452.711,234.711C454.621,236.66 457.352,237.602 460.91,237.602C462.41,237.602 463.91,237.371 465.332,236.922C466.75,236.469 467.91,235.84 468.891,234.941L467.09,231.262Z" style="fill:rgb(13,108,251);"/>
        <path d="M493.191,240C496.82,240 500.121,239.172 503.043,237.52C505.961,235.871 508.242,233.59 509.891,230.66C511.543,227.738 512.401,224.441 512.401,220.762C512.401,217.09 511.543,213.789 509.891,210.859C508.242,207.941 505.961,205.691 503.043,204.039C500.121,202.422 496.82,201.602 493.191,201.602C489.52,201.602 486.262,202.422 483.34,204.039C480.422,205.691 478.102,207.941 476.41,210.859C474.73,213.789 473.902,217.09 473.902,220.762C473.902,224.441 474.73,227.738 476.41,230.66C478.102,233.59 480.422,235.871 483.34,237.52C486.262,239.172 489.52,240 493.191,240ZM493.191,235.539C490.492,235.539 488.062,234.941 485.922,233.699C483.793,232.5 482.113,230.738 480.91,228.488C479.711,226.238 479.113,223.691 479.113,220.801C479.113,217.949 479.711,215.359 480.91,213.109C482.113,210.859 483.793,209.141 485.922,207.898C488.062,206.699 490.492,206.059 493.191,206.059C495.852,206.059 498.242,206.699 500.383,207.898C502.512,209.141 504.203,210.859 505.402,213.109C506.602,215.359 507.191,217.949 507.191,220.801C507.191,223.691 506.602,226.238 505.402,228.488C504.203,230.738 502.512,232.5 500.383,233.699C498.242,234.941 495.852,235.539 493.191,235.539Z" style="fill:rgb(13,108,251);"/>
        <path d="M528.172,208.91L528.172,201.602L523.262,201.602L523.262,240L528.352,240L528.352,220.309C528.352,215.809 529.48,212.328 531.723,209.809C533.973,207.34 537.121,206.059 541.082,206.059L542.32,206.059L542.32,201.602C538.801,201.602 535.883,202.238 533.52,203.441C531.121,204.672 529.363,206.512 528.172,208.91Z" style="fill:rgb(13,108,251);"/>
        <path d="M585.012,221.25C585.012,217.422 584.223,214.051 582.652,211.051C581.082,208.09 578.871,205.762 576.102,204.109C573.332,202.461 570.18,201.602 566.703,201.602C563.18,201.602 560.031,202.422 557.223,204.039C554.422,205.691 552.211,207.941 550.602,210.859C548.992,213.789 548.203,217.09 548.203,220.762C548.203,224.441 549.02,227.738 550.711,230.66C552.391,233.59 554.75,235.871 557.75,237.52C560.742,239.172 564.152,240 568.051,240C571.043,240 573.812,239.512 576.363,238.461C578.871,237.41 580.973,235.91 582.652,233.93L579.77,230.738C578.34,232.309 576.621,233.512 574.672,234.34C572.691,235.16 570.52,235.539 568.203,235.539C564,235.539 560.562,234.371 557.82,232.051C555.09,229.719 553.59,226.648 553.332,222.86L584.941,222.86L585.012,221.25ZM566.703,206.059C570.371,206.059 573.441,207.23 575.91,209.48C578.383,211.762 579.77,214.73 580.141,218.398L553.332,218.398C553.633,214.73 555.051,211.762 557.52,209.48C560,207.23 563.031,206.059 566.703,206.059Z" style="fill:rgb(13,108,251);"/>
        <path d="M561.793,196.801L566.852,196.801L578.492,187.199L571.641,187.199L561.793,196.801Z" style="fill:rgb(13,108,251);"/>
        <path d="M630.02,240C633.211,240 636.09,239.398 638.711,238.121C641.293,236.852 643.32,235.012 644.812,232.578L640.992,230.02C639.723,231.898 638.152,233.289 636.242,234.191C634.332,235.09 632.27,235.539 630.02,235.539C627.25,235.539 624.781,234.941 622.613,233.699C620.441,232.5 618.711,230.77 617.512,228.52C616.32,226.309 615.723,223.73 615.723,220.801C615.723,217.949 616.32,215.359 617.512,213.109C618.711,210.859 620.441,209.141 622.613,207.898C624.781,206.699 627.25,206.059 630.02,206.059C632.27,206.059 634.332,206.551 636.242,207.531C638.152,208.5 639.723,209.93 640.992,211.84L644.812,209.289C643.32,206.77 641.293,204.859 638.75,203.551C636.16,202.27 633.242,201.602 630.02,201.602C626.281,201.602 622.91,202.422 619.992,204.039C617.031,205.691 614.711,207.941 613.02,210.859C611.34,213.789 610.512,217.09 610.512,220.762C610.512,224.441 611.34,227.77 613.02,230.699C614.711,233.66 617.031,235.949 619.992,237.559C622.91,239.211 626.281,240 630.02,240Z" style="fill:rgb(13,108,251);"/>
        <path d="M674.363,201.602C671.18,201.602 668.371,202.238 665.93,203.441C663.461,204.641 661.551,206.359 660.172,208.609L660.172,187.199L655.07,187.199L655.07,240L660.172,240L660.172,219.898C660.172,215.59 661.332,212.211 663.723,209.738C666.082,207.301 669.301,206.059 673.422,206.059C677.062,206.059 679.863,207.109 681.812,209.211C683.762,211.309 684.77,214.309 684.77,218.289L684.77,240L689.863,240L689.863,217.91C689.863,212.59 688.441,208.539 685.672,205.762C682.863,202.988 679.082,201.602 674.363,201.602Z" style="fill:rgb(13,108,251);"/>
        <path d="M718.703,240C721.883,240 724.762,239.398 727.391,238.121C729.973,236.852 731.992,235.012 733.492,232.578L729.672,230.02C728.402,231.898 726.82,233.289 724.91,234.191C723,235.09 720.941,235.539 718.703,235.539C715.93,235.539 713.453,234.941 711.281,233.699C709.113,232.5 707.391,230.77 706.191,228.52C704.992,226.309 704.391,223.73 704.391,220.801C704.391,217.949 704.992,215.359 706.191,213.109C707.391,210.859 709.113,209.141 711.281,207.898C713.453,206.699 715.93,206.059 718.703,206.059C720.941,206.059 723,206.551 724.91,207.531C726.82,208.5 728.402,209.93 729.672,211.84L733.492,209.289C731.992,206.77 729.973,204.859 727.422,203.551C724.84,202.27 721.922,201.602 718.703,201.602C714.953,201.602 711.582,202.422 708.66,204.039C705.703,205.691 703.383,207.941 701.703,210.859C700.012,213.789 699.191,217.09 699.191,220.762C699.191,224.441 700.012,227.77 701.703,230.699C703.383,233.66 705.703,235.949 708.66,237.559C711.582,239.211 714.953,240 718.703,240Z" style="fill:rgb(13,108,251);"/>
        <path d="M776.742,221.25C776.742,217.422 775.953,214.051 774.383,211.051C772.812,208.09 770.602,205.762 767.832,204.109C765.062,202.461 761.91,201.602 758.43,201.602C754.91,201.602 751.762,202.422 748.961,204.039C746.152,205.691 743.941,207.941 742.332,210.859C740.723,213.789 739.93,217.09 739.93,220.762C739.93,224.441 740.75,227.738 742.441,230.66C744.121,233.59 746.48,235.871 749.48,237.52C752.48,239.172 755.883,240 759.781,240C762.77,240 765.543,239.512 768.09,238.461C770.602,237.41 772.703,235.91 774.383,233.93L771.5,230.738C770.082,232.309 768.352,233.512 766.41,234.34C764.422,235.16 762.25,235.539 759.93,235.539C755.73,235.539 752.293,234.371 749.551,232.051C746.82,229.719 745.32,226.648 745.062,222.86L776.672,222.86L776.742,221.25ZM758.43,206.059C762.102,206.059 765.172,207.23 767.641,209.48C770.113,211.762 771.5,214.73 771.871,218.398L745.062,218.398C745.363,214.73 746.781,211.762 749.25,209.48C751.73,207.23 754.762,206.059 758.43,206.059Z" style="fill:rgb(13,108,251);"/>
        <path d="M805.012,231.262C804.262,231.859 803.402,232.352 802.43,232.648C801.461,232.988 800.453,233.141 799.402,233.141C797.301,233.141 795.652,232.578 794.531,231.371C793.41,230.211 792.84,228.488 792.84,226.238L792.84,203.66L804.383,203.66L804.383,199.199L792.84,199.199L792.84,190.802L787.75,190.802L787.75,199.199L781.012,199.199L781.012,203.66L787.75,203.66L787.75,226.57C787.75,230.102 788.691,232.801 790.633,234.711C792.543,236.66 795.281,237.602 798.84,237.602C800.332,237.602 801.832,237.371 803.25,236.922C804.68,236.469 805.84,235.84 806.812,234.941L805.012,231.262Z" style="fill:rgb(13,108,251);"/>
        <path d="M848.641,221.25C848.641,217.422 847.852,214.051 846.281,211.051C844.711,208.09 842.5,205.762 839.73,204.109C836.961,202.461 833.812,201.602 830.332,201.602C826.812,201.602 823.66,202.422 820.852,204.039C818.051,205.691 815.84,207.941 814.23,210.859C812.621,213.789 811.832,217.09 811.832,220.762C811.832,224.441 812.652,227.738 814.34,230.66C816.02,233.59 818.383,235.871 821.383,237.52C824.371,239.172 827.781,240 831.68,240C834.672,240 837.441,239.512 839.992,238.461C842.5,237.41 844.602,235.91 846.281,233.93L843.402,230.738C841.973,232.309 840.25,233.512 838.301,234.34C836.32,235.16 834.152,235.539 831.832,235.539C827.633,235.539 824.191,234.371 821.453,232.051C818.723,229.719 817.223,226.648 816.961,222.86L848.57,222.86L848.641,221.25ZM830.332,206.059C834,206.059 837.07,207.23 839.543,209.48C842.012,211.762 843.402,214.73 843.77,218.398L816.961,218.398C817.262,214.73 818.68,211.762 821.152,209.48C823.633,207.23 826.66,206.059 830.332,206.059Z" style="fill:rgb(13,108,251);"/>
    </g>
</svg>
