<svg xmlns="http://www.w3.org/2000/svg" version="1.1" xmlns:xlink="http://www.w3.org/1999/xlink" xmlns:svgjs="http://svgjs.dev/svgjs" width="1920" height="450" preserveAspectRatio="none" viewBox="0 0 1920 450"><g mask="url(&quot;#SvgjsMask1006&quot;)" fill="none"><rect width="1920" height="450" x="0" y="0" fill="rgba(13, 110, 253, 1)"></rect><path d="M0 0L604.16 0L0 212.71z" fill="rgba(255, 255, 255, .1)"></path><path d="M0 212.71L604.16 0L1216.6100000000001 0L0 283.81z" fill="rgba(255, 255, 255, .075)"></path><path d="M0 283.81L1216.6100000000001 0L1565.7200000000003 0L0 345.43z" fill="rgba(255, 255, 255, .05)"></path><path d="M0 345.43L1565.7200000000003 0L1671.5500000000002 0L0 411.74z" fill="rgba(255, 255, 255, .025)"></path><path d="M1920 450L1135.45 450L1920 386.67z" fill="rgba(0, 0, 0, .1)"></path><path d="M1920 386.67L1135.45 450L701.9100000000001 450L1920 231.70000000000002z" fill="rgba(0, 0, 0, .075)"></path><path d="M1920 231.7L701.9100000000001 450L291.9600000000001 450L1920 127.78999999999999z" fill="rgba(0, 0, 0, .05)"></path><path d="M1920 127.78999999999996L291.96000000000004 450L94.98000000000005 450L1920 46.349999999999966z" fill="rgba(0, 0, 0, .025)"></path></g><defs><mask id="SvgjsMask1006"><rect width="1920" height="450" fill="#ffffff"></rect></mask></defs></svg>