<?xml version="1.0" encoding="UTF-8" standalone="no"?>
<!DOCTYPE svg PUBLIC "-//W3C//DTD SVG 1.1//EN" "http://www.w3.org/Graphics/SVG/1.1/DTD/svg11.dtd">
<svg width="100%" height="100%" viewBox="0 0 663 1000" version="1.1" xmlns="http://www.w3.org/2000/svg" xmlns:xlink="http://www.w3.org/1999/xlink" xml:space="preserve" xmlns:serif="http://www.serif.com/" style="fill-rule:evenodd;clip-rule:evenodd;stroke-linejoin:round;stroke-miterlimit:2;">
    <g transform="matrix(4.16667,0,0,4.16667,0,0)">
        <path d="M92.793,0L76.281,31.93C81.312,33.852 85.93,36.59 89.992,39.98L98.203,24.48C143.883,50.559 147.07,88.012 137.723,104.211L107.402,156.699C111.992,158.43 116.25,160.859 120.051,163.84L150.281,111.5C166.07,85.199 167.27,45.602 92.793,0ZM32.441,116.699L6.473,166.898C-6.887,190.039 1.102,219.551 24.32,232.801C35.27,239.051 47.652,240.57 59.07,238.013C54.75,234.289 51.09,229.82 48.312,224.801C42.602,224.789 36.832,223.34 31.531,220.32C15.27,211.039 9.68,190.391 19.043,174.191L46.102,123C41.18,121.621 36.582,119.469 32.441,116.699Z" style="fill:rgb(13,110,253);"/>
        <path d="M35.133,76.801C35.133,63.551 45.891,52.801 59.16,52.801C72.43,52.801 83.18,63.551 83.18,76.801C83.18,90.059 72.43,100.801 59.16,100.801C45.891,100.801 35.133,90.059 35.133,76.801ZM23.121,76.801C23.121,96.68 39.25,112.801 59.16,112.801C79.062,112.801 95.203,96.68 95.203,76.801C95.203,56.922 79.062,40.801 59.16,40.801C39.25,40.801 23.121,56.922 23.121,76.801Z" style="fill:rgb(13,110,253);"/>
        <path d="M66.363,201.602C66.363,188.352 77.121,177.602 90.391,177.602C103.66,177.602 114.422,188.352 114.422,201.602C114.422,214.859 103.66,225.602 90.391,225.602C77.121,225.602 66.363,214.859 66.363,201.602ZM54.352,201.602C54.352,221.48 70.492,237.602 90.391,237.602C110.293,237.602 126.43,221.48 126.43,201.602C126.43,181.719 110.293,165.602 90.391,165.602C70.492,165.602 54.352,181.719 54.352,201.602Z" style="fill:rgb(13,110,253);"/>
    </g>
</svg>
